<?xml version="1.0" encoding="UTF-8" standalone="no"?>
<svg width="16px" height="16px" viewBox="0 0 16 16" version="1.1" xmlns="http://www.w3.org/2000/svg" xmlns:xlink="http://www.w3.org/1999/xlink">
    <!-- Generator: Sketch 3.8.3 (29802) - http://www.bohemiancoding.com/sketch -->
    <title>cog-default</title>
    <desc>Created with Sketch.</desc>
    <defs></defs>
    <g id="Icons" stroke="none" stroke-width="1" fill="none" fill-rule="evenodd">
        <g id="cog-default" fill="#8C96A9">
            <path d="M14.308285,9.5351689 C13.468849,8.0812342 13.97366,6.2179254 15.435657,5.371302 L13.86341,2.6479948 C13.414193,2.9113381 12.891912,3.0623378 12.33457,3.0623378 C10.654292,3.0623378 9.292263,1.6913092 9.292263,0 L6.147582,0 C6.151738,0.5220302 6.021426,1.0512792 5.741989,1.5351845 C4.902553,2.9891817 3.036432,3.4836494 1.572278,2.6407761 L0,5.3640833 C0.452655,5.6214578 0.84453,5.9982695 1.123217,6.4809248 C1.96134,7.9326095 1.459372,9.7921684 0.002812,10.6406667 L1.575091,13.3639739 C2.022746,13.1030994 2.542526,12.9537872 3.096963,12.9537872 C4.771897,12.9537872 6.130457,14.3161908 6.139144,16 L9.283732,16 C9.282388,15.4832198 9.412982,14.9598458 9.689419,14.4809717 C10.527448,13.0293183 12.38907,12.5341943 13.852129,13.3714114 L15.424376,10.6481042 C14.974752,10.3908235 14.585503,10.0153242 14.308285,9.5351689 L14.308285,9.5351689 L14.308285,9.5351689 Z M7.717829,11.2395718 C5.928645,11.2395718 4.47821,9.7891996 4.47821,7.9999844 C4.47821,6.2108004 5.928613,4.760397 7.717829,4.760397 C9.507013,4.760397 10.957416,6.2108004 10.957416,7.9999844 C10.957322,9.7891996 9.507013,11.2395718 7.717829,11.2395718 L7.717829,11.2395718 L7.717829,11.2395718 Z" id="Shape"></path>
        </g>
    </g>
</svg>