<?xml version="1.0" encoding="utf-8"?>
<!-- Generator: Adobe Illustrator 19.2.1, SVG Export Plug-In . SVG Version: 6.00 Build 0)  -->
<!DOCTYPE svg PUBLIC "-//W3C//DTD SVG 1.1//EN" "http://www.w3.org/Graphics/SVG/1.1/DTD/svg11.dtd">
<svg version="1.1" id="Layer_1" xmlns="http://www.w3.org/2000/svg" xmlns:xlink="http://www.w3.org/1999/xlink" x="0px" y="0px"
	 viewBox="0 0 16 16" style="enable-background:new 0 0 16 16;" xml:space="preserve">
<style type="text/css">
	.st0{fill:#CCCCCC;}
</style>
<title>comment-gray-dark-16px</title>
<desc>Created with Sketch.</desc>
<g id="Icons">
	<g id="comment-gray-dark-16px">
		<polygon id="Line" class="st0" points="5.1,5.4 4.6,5.4 4.6,4.4 5.1,4.4 11.1,4.4 11.6,4.4 11.6,5.4 11.1,5.4 		"/>
		<polygon id="Line_1_" class="st0" points="5.1,6.9 4.6,6.9 4.6,5.9 5.1,5.9 11.1,5.9 11.6,5.9 11.6,6.9 11.1,6.9 		"/>
		<polygon id="Line_2_" class="st0" points="5.1,8.4 4.6,8.4 4.6,7.4 5.1,7.4 11.1,7.4 11.6,7.4 11.6,8.4 11.1,8.4 		"/>
		<path class="st0" d="M14,0H2C0.9,0,0,0.9,0,2v13l2.9-2.3h11c1.1,0,2-0.9,2-2V2C16,0.9,15.1,0,14,0z M14,11H2V2h12V11z"/>
	</g>
</g>
</svg>
