<?xml version="1.0" encoding="UTF-8" standalone="no"?>
<svg width="16px" height="16px" viewBox="0 0 16 16" version="1.1" xmlns="http://www.w3.org/2000/svg" xmlns:xlink="http://www.w3.org/1999/xlink">
    <!-- Generator: Sketch 40.1 (33804) - http://www.bohemiancoding.com/sketch -->
    <title>inspect-gray-16px</title>
    <desc>Created with Sketch.</desc>
    <defs></defs>
    <g id="Icons" stroke="none" stroke-width="1" fill="none" fill-rule="evenodd">
        <g id="inspect-gray-16px" fill="#CCCCCC">
            <g id="inspect" transform="translate(0.000000, 1.000000)">
                <path d="M0.248226956,7.34532986 C0.231661127,7.1714895 0.291874538,6.991629 0.428352138,6.85983412 L3.05445339,4.32383762 L3.61843054,3.77921121 C3.85224973,3.55341465 4.23274828,3.56810556 4.45344703,3.79664581 C4.68079472,4.03207123 4.67015214,4.41117677 4.43255329,4.64062331 L1.63174767,7.34532986 L4.43255329,10.0500364 C4.67015214,10.2794829 4.68079472,10.6585885 4.45344703,10.8940139 C4.23274828,11.1225542 3.85224973,11.1372451 3.61843054,10.9114485 L3.05445339,10.3668221 L0.428352138,7.83082559 C0.291874538,7.69903071 0.231661127,7.51917021 0.248226956,7.34532986 Z" id="Rectangle-556"></path>
                <path d="M11.0372073,7.34532986 C11.0206415,7.1714895 11.0808549,6.991629 11.2173325,6.85983412 L13.8434338,4.32383762 L14.4074109,3.77921121 C14.6412301,3.55341465 15.0217286,3.56810556 15.2424274,3.79664581 C15.4697751,4.03207123 15.4591325,4.41117677 15.2215337,4.64062331 L12.420728,7.34532986 L15.2215337,10.0500364 C15.4591325,10.2794829 15.4697751,10.6585885 15.2424274,10.8940139 C15.0217286,11.1225542 14.6412301,11.1372451 14.4074109,10.9114485 L13.8434338,10.3668221 L11.2173325,7.83082559 C11.0808549,7.69903071 11.0206415,7.51917021 11.0372073,7.34532986 Z" id="Rectangle-556" transform="translate(13.220967, 7.345330) scale(-1, 1) translate(-13.220967, -7.345330) "></path>
                <path d="M5.15770045,12.9829729 C5.0664767,13.2436122 5.20381513,13.5288536 5.46445442,13.6200773 C5.72509371,13.7113011 6.01033506,13.5739626 6.10155881,13.3133234 L10.249707,1.46147151 C10.3409307,1.20083222 10.2035923,0.915590869 9.94295299,0.824367118 C9.6823137,0.733143367 9.39707235,0.870481796 9.3058486,1.13112108 L5.15770045,12.9829729 Z" id="Line"></path>
            </g>
        </g>
    </g>
</svg>