<?xml version="1.0" encoding="UTF-8" standalone="no"?>
<svg width="16px" height="14px" viewBox="0 0 16 14" version="1.1" xmlns="http://www.w3.org/2000/svg" xmlns:xlink="http://www.w3.org/1999/xlink">
    <!-- Generator: Sketch 39.1 (31720) - http://www.bohemiancoding.com/sketch -->
    <title>InVision - Strech Fix?</title>
    <desc>Created with Sketch.</desc>
    <defs></defs>
    <g id="Symbols" stroke="none" stroke-width="1" fill="none" fill-rule="evenodd">
        <g id="invision-logo" fill="#FF3366">
            <g id="InVision---Strech-Fix?">
                <path d="M13.3888,11.3450969 C13.3888,11.1566046 13.4314667,10.9424088 13.4912,10.6853739 L14.1653333,8.24354214 C14.336,7.66949748 14.3957333,7.16399547 14.3957333,6.69276478 C14.3957333,4.86781683 13.2949333,3.91678761 11.9637333,3.91678761 C10.7178667,3.91678761 9.4464,5.04774127 8.81493333,6.23866975 L9.27573333,4.11384772 L5.6576,4.11384772 L5.15413333,5.99877049 L6.84373333,5.99877049 L5.80266667,10.1713041 C4.98346667,11.996252 3.4816,12.0133877 3.29386667,11.9705485 C2.98666667,11.9020059 2.7904,11.7820562 2.7904,11.3793682 C2.7904,11.1480368 2.83306667,10.8138914 2.93546667,10.4112033 L4.52266667,4.10527989 L0.503466667,4.10527989 L0,5.99020265 L1.67253333,5.99020265 L0.597333333,10.4026355 C0.512,10.7624844 0.469333333,11.1394689 0.469333333,11.4564787 C0.469333333,12.707382 1.14346667,13.5384615 2.5856,13.5384615 C3.78026667,13.5384615 4.74453333,12.8187638 5.44426667,11.6706744 L5.0176,13.3671049 L7.38133333,13.3671049 L8.73813333,7.93510023 C9.07946667,6.55567948 9.728,5.86168519 10.7264,5.86168519 C11.5114667,5.86168519 11.9978667,6.35005155 11.9978667,7.15542764 C11.9978667,7.38675907 11.9808,7.64379399 11.8954667,7.91796457 L11.1957333,10.4197711 C11.0933333,10.77962 11.0506667,11.1394689 11.0506667,11.4821822 C11.0506667,12.6731106 11.7504,13.5384615 13.2096,13.5384615 C14.4554667,13.5384615 15.4538667,12.7330854 16,10.7967557 L15.0698667,10.4369068 C14.592,11.7477849 14.1909333,11.9791163 13.8752,11.9791163 C13.5594667,11.9791163 13.3888,11.7649206 13.3888,11.3450969 L13.3888,11.3450969 L13.3888,11.3450969 L13.3888,11.3450969 Z" id="InVision"></path>
                <path d="M3.55555556,2.80986938 C4.34366339,2.80986938 4.99470899,2.20050011 4.99470899,1.40493469 C4.99470899,0.609369262 4.335097,0 3.55555556,0 C2.76744772,0 2.11640212,0.609369262 2.11640212,1.40493469 C2.11640212,2.20050011 2.77601411,2.80986938 3.55555556,2.80986938 L3.55555556,2.80986938 L3.55555556,2.80986938 L3.55555556,2.80986938 Z" id="InVision"></path>
            </g>
        </g>
    </g>
</svg>