<?xml version="1.0" encoding="UTF-8" standalone="no"?>
<svg width="16px" height="16px" viewBox="0 0 16 16" version="1.1" xmlns="http://www.w3.org/2000/svg" xmlns:xlink="http://www.w3.org/1999/xlink">
    <!-- Generator: Sketch 40.1 (33804) - http://www.bohemiancoding.com/sketch -->
    <title>preview-gray-16px</title>
    <desc>Created with Sketch.</desc>
    <defs></defs>
    <g id="Icons" stroke="none" stroke-width="1" fill="none" fill-rule="evenodd">
        <g id="preview-gray-16px" fill="#CCCCCC">
            <g id="preview" transform="translate(0.000000, 2.000000)">
                <path d="M12.2962389,7.24881789 C12.831833,6.7996949 13.2805627,6.30557337 13.5821791,5.85394559 C13.7037603,5.67189502 13.7909723,5.51175008 13.839636,5.39194867 C13.8522658,5.36085631 13.847619,5.38056144 13.847619,5.48571429 C13.847619,5.59086713 13.8522658,5.61057226 13.839636,5.5794799 C13.7909723,5.45967849 13.7037603,5.29953355 13.5821791,5.11748298 C13.2805627,4.6658552 12.831833,4.17173367 12.2962389,3.72261068 C11.0109878,2.64486201 9.46833258,2 7.92380952,2 C6.37928647,2 4.83663129,2.64486201 3.55138015,3.72261068 C3.01578603,4.17173367 2.56705635,4.6658552 2.26543991,5.11748298 C2.14385872,5.29953355 2.05664672,5.45967849 2.00798308,5.5794799 C1.99535329,5.61057226 2,5.59086713 2,5.48571429 C2,5.38056144 1.99535329,5.36085631 2.00798308,5.39194867 C2.05664672,5.51175008 2.14385872,5.67189502 2.26543991,5.85394559 C2.56705635,6.30557337 3.01578603,6.7996949 3.55138015,7.24881789 C4.83663129,8.32656656 6.37928647,8.97142857 7.92380952,8.97142857 C9.46833258,8.97142857 11.0109878,8.32656656 12.2962389,7.24881789 Z M0,5.48571429 C0,4.01171627 3.40219246,3.38353684e-16 7.92380952,0 C12.4454266,0 15.847619,4.01171627 15.847619,5.48571429 C15.847619,6.9597123 12.4454266,10.9714286 7.92380952,10.9714286 C3.40219246,10.9714286 1.46666565e-16,6.9597123 0,5.48571429 Z" id="Oval-3"></path>
                <path d="M8.75238095,5.48571429 C8.75238095,5.02810692 8.38141689,4.65714286 7.92380952,4.65714286 C7.46620216,4.65714286 7.0952381,5.02810692 7.0952381,5.48571429 C7.0952381,5.94332165 7.46620216,6.31428571 7.92380952,6.31428571 C8.38141689,6.31428571 8.75238095,5.94332165 8.75238095,5.48571429 Z M6.0952381,5.48571429 C6.0952381,4.47582217 6.91391741,3.65714286 7.92380952,3.65714286 C8.93370164,3.65714286 9.75238095,4.47582217 9.75238095,5.48571429 C9.75238095,6.4956064 8.93370164,7.31428571 7.92380952,7.31428571 C6.91391741,7.31428571 6.0952381,6.4956064 6.0952381,5.48571429 Z" id="Oval-3"></path>
            </g>
        </g>
    </g>
</svg>